<?xml version="1.0" encoding="utf-8"?>
<!-- Generator: Adobe Illustrator 19.0.0, SVG Export Plug-In . SVG Version: 6.00 Build 0)  -->
<svg version="1.1" id="Layer_1" xmlns="http://www.w3.org/2000/svg" xmlns:xlink="http://www.w3.org/1999/xlink" x="0px" y="0px"
	 viewBox="0 0 250 73" style="enable-background:new 0 0 250 73;" xml:space="preserve">
<g id="XMLID_65_">
	<g id="XMLID_69_">
		<path id="XMLID_84_" style="fill:#414142;" d="M1.2,59.8c0-0.4,0.3-0.6,0.6-0.6h1.9c0.4,0,0.6,0.1,0.6,0.6
			c0.1,5.2,2.9,7.7,7.8,7.7c4.3,0,6.9-2.5,6.9-6.3c0-9.3-17.6-6.1-17.6-18c0-5.2,4-9.3,10-9.3c6.4,0,10,3.9,10.2,9.9
			c0,0.4-0.2,0.6-0.6,0.6h-2c-0.4,0-0.6-0.2-0.6-0.6c-0.2-4.1-2.7-6.8-7-6.8c-4.1,0-7,2.5-7,6.2c0,9.1,17.6,5.9,17.6,18
			c0,5.2-4.2,9.3-10.1,9.3C5.6,70.5,1.5,66.4,1.2,59.8z"/>
		<path id="XMLID_82_" style="fill:#414142;" d="M27.9,59.6V45.1c0-6.5,4.2-11.2,10.4-11.2c6,0,10,4.1,10.3,9.9
			c0,0.4-0.2,0.6-0.6,0.6h-2c-0.4,0-0.6-0.2-0.6-0.6c-0.3-4.1-3-6.8-7.2-6.8c-4.4,0-7.2,3.2-7.2,8.1v14.5c0,4.7,2.8,7.9,7.3,7.9
			c4.3,0,7.1-3.1,7.3-7.7c0-0.4,0.3-0.6,0.6-0.6h1.9c0.4,0,0.6,0.2,0.6,0.6c-0.4,6.3-4.4,10.7-10.5,10.7
			C32.2,70.5,27.9,65.9,27.9,59.6z"/>
		<path id="XMLID_80_" style="fill:#414142;" d="M55.8,69.3v-24c0-6.5,4.7-10.9,10.9-10.9h2.8c0.4,0,0.6,0.3,0.6,0.6v1.8
			c0,0.4-0.3,0.6-0.6,0.6h-2.8c-4.6,0-7.8,3-7.8,7.9v24c0,0.4-0.3,0.6-0.6,0.6h-1.9C56,69.9,55.8,69.7,55.8,69.3z"/>
		<path id="XMLID_77_" style="fill:#414142;" d="M73.1,59.6V44.9c0-6.4,4.1-10.9,10.5-10.9c6.3,0,10.5,4.7,10.5,10.7
			c0,5.9-4.1,10.2-11,10.2h-6.8v4.7c0,4.5,2.5,7.9,7.3,7.9c4.5,0,7.1-3.2,7.3-7.8c0-0.4,0.3-0.6,0.6-0.6h1.9c0.4,0,0.6,0.2,0.6,0.6
			c-0.2,6.3-4.2,10.7-10.5,10.7C77,70.4,73.1,65.9,73.1,59.6z M83.1,51.9c5.2,0,7.8-3,7.8-7.2c0-4.4-2.8-7.7-7.3-7.7
			c-4.7,0-7.3,3.2-7.3,8v6.9H83.1z"/>
		<path id="XMLID_74_" style="fill:#414142;" d="M100.5,59.6V44.9c0-6.4,4.1-10.9,10.5-10.9c6.3,0,10.5,4.7,10.5,10.7
			c0,5.9-4.1,10.2-11,10.2h-6.8v4.7c0,4.5,2.5,7.9,7.3,7.9c4.5,0,7.1-3.2,7.3-7.8c0-0.4,0.3-0.6,0.6-0.6h1.9c0.4,0,0.6,0.2,0.6,0.6
			c-0.2,6.3-4.2,10.7-10.4,10.7C104.5,70.4,100.5,65.9,100.5,59.6z M110.6,51.9c5.2,0,7.8-3,7.8-7.2c0-4.4-2.8-7.7-7.3-7.7
			c-4.7,0-7.3,3.2-7.3,8v6.9H110.6z"/>
		<path id="XMLID_72_" style="fill:#414142;" d="M128.4,69.3V45.1c0-6.4,4-11.2,10.2-11.2c6.3,0,10.2,4.7,10.2,11.2v24.2
			c0,0.4-0.3,0.6-0.6,0.6h-1.9c-0.4,0-0.6-0.2-0.6-0.6V45.1c0-4.9-2.5-8.2-7.1-8.2c-4.6,0-7.1,3.3-7.1,8.2v24.2
			c0,0.4-0.3,0.6-0.6,0.6h-1.9C128.7,69.9,128.4,69.7,128.4,69.3z"/>
		<path id="XMLID_70_" style="fill:#414142;" d="M156,59.8c0-0.4,0.3-0.6,0.6-0.6h1.9c0.4,0,0.6,0.1,0.6,0.6
			c0.1,5.2,2.9,7.7,7.8,7.7c4.3,0,6.9-2.5,6.9-6.3c0-9.3-17.6-6.1-17.6-18c0-5.2,4-9.3,10-9.3c6.4,0,10,3.9,10.2,9.9
			c0,0.4-0.2,0.6-0.6,0.6h-2c-0.4,0-0.6-0.2-0.6-0.6c-0.2-4.1-2.7-6.8-7-6.8c-4.1,0-7,2.5-7,6.2c0,9.1,17.7,5.9,17.7,18
			c0,5.2-4.2,9.3-10.1,9.3C160.3,70.5,156.2,66.4,156,59.8z"/>
	</g>
	<g id="XMLID_66_">
		<linearGradient id="XMLID_88_" gradientUnits="userSpaceOnUse" x1="204.5241" y1="0.4444" x2="236.9244" y2="56.5634">
			<stop  offset="0.2427" style="stop-color:#31C4F3"/>
			<stop  offset="0.355" style="stop-color:#31BEEF"/>
			<stop  offset="0.52" style="stop-color:#2AB1E6"/>
			<stop  offset="0.7173" style="stop-color:#1E9CD7"/>
			<stop  offset="0.9379" style="stop-color:#1281C4"/>
			<stop  offset="1" style="stop-color:#0D7ABE"/>
		</linearGradient>
		<path id="XMLID_2_" style="fill:url(#XMLID_88_);" d="M250,35.9c0-0.2,0-0.5,0-0.7c0-0.3-0.1-0.6-0.1-0.9c0-0.2-0.1-0.4-0.1-0.6
			c-0.1-0.3-0.1-0.6-0.2-0.9c-0.1-0.2-0.1-0.4-0.2-0.6c-0.1-0.3-0.2-0.6-0.3-0.9c-0.1-0.2-0.2-0.5-0.3-0.7c-0.1-0.2-0.2-0.5-0.3-0.7
			c-0.1-0.3-0.3-0.5-0.4-0.8c-0.1-0.2-0.2-0.4-0.3-0.6c-0.2-0.3-0.4-0.6-0.6-0.9c-0.1-0.2-0.2-0.3-0.3-0.5c-0.2-0.3-0.4-0.6-0.6-0.8
			c-0.1-0.2-0.3-0.4-0.5-0.5c-0.2-0.2-0.4-0.4-0.6-0.6c-0.2-0.2-0.4-0.4-0.6-0.6c-0.2-0.2-0.3-0.3-0.5-0.5c-0.3-0.2-0.5-0.4-0.8-0.6
			c-0.1-0.1-0.2-0.1-0.3-0.2L216.1,4.6c-7.5-5.2-17.8-3.3-22.9,4.2c-5.2,7.5-3.3,17.8,4.2,22.9l7.2,5l12,8.3
			c0.2,0.1,0.4,0.3,0.6,0.4c3.5,2.6,5.8,6.7,5.8,11.4c0,4.1-1.8,7.9-4.7,10.4l24.3-16.8l0.2-0.2c0.5-0.3,0.9-0.7,1.3-1c0,0,0,0,0,0
			c0.4-0.3,0.7-0.7,1.1-1c0.1-0.1,0.2-0.2,0.2-0.3c0.3-0.3,0.6-0.7,0.9-1c0.1-0.1,0.2-0.2,0.2-0.3c0.2-0.2,0.4-0.5,0.5-0.7
			c0.2-0.3,0.4-0.6,0.6-0.9c0.1-0.2,0.2-0.4,0.3-0.6c0.1-0.3,0.3-0.5,0.4-0.8c0.1-0.2,0.2-0.5,0.3-0.7c0.1-0.2,0.2-0.5,0.3-0.7
			c0.1-0.3,0.2-0.6,0.3-0.9c0.1-0.2,0.1-0.4,0.2-0.6c0.1-0.3,0.2-0.6,0.2-0.9c0-0.2,0.1-0.4,0.1-0.6c0-0.3,0.1-0.6,0.1-0.9
			c0-0.2,0-0.5,0-0.7c0-0.3,0-0.6,0-0.8C250,36.5,250,36.2,250,35.9z"/>
		<path id="XMLID_1_" style="fill:#AEE0F9;" d="M217.2,45.5l-12.7-8.8l-7.2,5c-7.5,5.2-9.4,15.4-4.2,22.9c3.2,4.6,8.3,7.1,13.6,7.1
			c2.9,0,5.8-0.8,8.4-2.3c0.3-0.2,0.7-0.4,1-0.6l2.2-1.5c2.9-2.6,4.7-6.3,4.7-10.4C223,52.2,220.7,48,217.2,45.5z"/>
	</g>
</g>
</svg>
